<svg width="24" height="24" viewBox="0 0 24 24" fill="none" xmlns="http://www.w3.org/2000/svg">
  <path fill-rule="evenodd" clip-rule="evenodd" d="M16.3842 10.6871C16.3842 13.8277 13.8367 16.3754 10.6921 16.3754C7.54751 16.3754 5 13.8277 5 10.6871C5 7.54647 7.54751 4.99879 10.6921 4.99879C13.8367 4.99879 16.3842 7.54647 16.3842 10.6871ZM15.3514 16.805C14.0584 17.7903 12.4436 18.3754 10.6921 18.3754C6.44387 18.3754 3 14.9332 3 10.6871C3 6.44097 6.44387 2.99879 10.6921 2.99879C14.9403 2.99879 18.3842 6.44097 18.3842 10.6871C18.3842 12.4436 17.7949 14.0625 16.8031 15.357L20.7069 19.2589C21.0975 19.6493 21.0975 20.2823 20.7069 20.6728L20.6713 20.7084C20.2807 21.0988 19.6473 21.0988 19.2567 20.7084L15.3514 16.805Z" fill="white"/>
</svg>
